# xmcd
#
# Track frame offsets:
#	150
#	18218
#	37942
#	57493
#	75212
#	93098
#	116099
#	133354
#	153189
#	173131
#	185868
#	206319
#	226978
#
# Disc length: 3308 seconds
#
# Revision: 1
# Processed by: cddbd v1.5.2PL0 Copyright (c) Steve Scherf et al.
# Submitted via: audiograbber 1.83.01
#
DISCID=9d0cea0d
DTITLE=Beccy Cole - Songs and Pictures
DYEAR=2011
DGENRE=Country
TTITLE0=Shiny Things
TTITLE1=Waitress
TTITLE2=Purple Hills
TTITLE3=Woman In Me
TTITLE4=Only Music
TTITLE5=Hello Happiness
TTITLE6=Millionaires (featuring Kasey Chambers)
TTITLE7=Singer Sees It All
TTITLE8=Gloria's Roses
TTITLE9=Here I Go Again
TTITLE10=Australian Woman
TTITLE11=Leave The Light On
TTITLE12=Songs and Pictures
EXTD=
EXTT0=
EXTT1=
EXTT2=
EXTT3=
EXTT4=
EXTT5=
EXTT6=
EXTT7=
EXTT8=
EXTT9=
EXTT10=
EXTT11=
EXTT12=
PLAYORDER=
